<svg width="64" height="64" viewBox="0 0 64 64" fill="none" xmlns="http://www.w3.org/2000/svg">
<g filter="url(#filter0_d_2042_20709)">
<rect x="10" y="8" width="44" height="44" rx="12" fill="#DDEFF8" shape-rendering="crispEdges"/>
<path fill-rule="evenodd" clip-rule="evenodd" d="M28.8928 24.2906C28.9595 23.8252 29.1017 23.5685 29.3032 23.3958C29.6385 23.1083 30.363 22.8504 32 22.8504C33.6371 22.8504 34.3615 23.1083 34.6969 23.3958C34.8987 23.5687 35.041 23.826 35.1075 24.2928C34.2013 24.1898 33.1687 24.1504 32 24.1504C30.83 24.1504 29.7978 24.19 28.8928 24.2906ZM27.1589 24.6036C27.2029 23.678 27.4267 22.7651 28.1969 22.105C29.0282 21.3924 30.3037 21.1504 32 21.1504C33.6963 21.1504 34.9718 21.3924 35.8032 22.105C36.5763 22.7677 36.7989 23.6851 36.8416 24.6143C37.7273 24.8613 38.4776 25.2346 39.0805 25.7981C40.2614 26.902 40.6879 28.5598 40.8092 30.7393C40.8357 30.8216 40.85 30.9093 40.85 31.0004C40.85 31.1581 40.8469 31.3172 40.8387 31.477C40.8466 31.7797 40.85 32.0914 40.85 32.4122C40.85 34.847 40.5321 36.845 39.0663 38.1545C37.6393 39.4294 35.3374 39.8504 32 39.8504C30.3152 39.8504 28.916 39.7683 27.7713 39.54C26.6222 39.3109 25.6702 38.923 24.9347 38.268C23.4553 36.9503 23.15 34.8226 23.15 32.0004C23.15 31.7802 23.1519 31.5643 23.156 31.3526C23.1518 31.2346 23.15 31.1171 23.15 31.0004C23.15 30.9335 23.1578 30.8684 23.1724 30.8059C23.2646 28.5725 23.6719 26.8575 24.9347 25.7328C25.5353 25.1979 26.2802 24.8412 27.1589 24.6036ZM24.857 31.3414C24.911 28.9196 25.2797 27.702 26.0653 27.0023C26.4965 26.6184 27.1278 26.3226 28.1038 26.1279C29.084 25.9324 30.3515 25.8504 32 25.8504C33.6493 25.8504 34.9142 25.9326 35.8914 26.1334C36.8623 26.3329 37.4892 26.6377 37.9196 27.04C38.6917 27.7618 39.0647 29.0156 39.1369 31.4594C39.1137 31.8257 39.0586 32.1217 38.9613 32.3699C38.837 32.6871 38.6282 32.9662 38.2262 33.2156C37.3434 33.7634 35.5692 34.1504 32.0061 34.1504C28.4433 34.1504 26.6653 33.7635 25.779 33.2151C25.3751 32.9651 25.165 32.6855 25.04 32.3683C24.932 32.0944 24.8755 31.7621 24.857 31.3414ZM38.9827 34.7434C38.8014 35.7427 38.4647 36.4123 37.9337 36.8867C37.0274 37.6964 35.3293 38.1504 32 38.1504C30.3515 38.1504 29.084 38.0684 28.1038 37.8729C27.1278 37.6782 26.4965 37.3824 26.0653 36.9985C25.5477 36.5374 25.2111 35.8516 25.0262 34.7448C26.3757 35.512 28.5684 35.8504 32.0061 35.8504C35.4448 35.8504 37.6357 35.5118 38.9827 34.7434ZM29.15 32.0004C29.15 31.5309 29.5306 31.1504 30 31.1504H34C34.4695 31.1504 34.85 31.5309 34.85 32.0004C34.85 32.4698 34.4695 32.8504 34 32.8504L30 32.8504C29.5306 32.8504 29.15 32.4698 29.15 32.0004Z" fill="#006597"/>
</g>
<defs>
<filter id="filter0_d_2042_20709" x="0" y="0" width="64" height="64" filterUnits="userSpaceOnUse" color-interpolation-filters="sRGB">
<feFlood flood-opacity="0" result="BackgroundImageFix"/>
<feColorMatrix in="SourceAlpha" type="matrix" values="0 0 0 0 0 0 0 0 0 0 0 0 0 0 0 0 0 0 127 0" result="hardAlpha"/>
<feOffset dy="2"/>
<feGaussianBlur stdDeviation="5"/>
<feComposite in2="hardAlpha" operator="out"/>
<feColorMatrix type="matrix" values="0 0 0 0 0.584314 0 0 0 0 0.792157 0 0 0 0 0.890196 0 0 0 0.12 0"/>
<feBlend mode="normal" in2="BackgroundImageFix" result="effect1_dropShadow_2042_20709"/>
<feBlend mode="normal" in="SourceGraphic" in2="effect1_dropShadow_2042_20709" result="shape"/>
</filter>
</defs>
</svg>
