<svg width="50" height="50" viewBox="0 0 50 50" fill="none" xmlns="http://www.w3.org/2000/svg">
<rect width="50" height="50" rx="25" fill="#DDEFF8"/>
<path fill-rule="evenodd" clip-rule="evenodd" d="M15.7385 24.9979C15.7385 19.883 19.8849 15.7365 24.9998 15.7365C26.0122 15.7365 26.9848 15.8986 27.8942 16.1975C28.401 16.3641 28.9469 16.0883 29.1135 15.5815C29.28 15.0747 29.0042 14.5288 28.4974 14.3623C27.3958 14.0002 26.2197 13.8047 24.9998 13.8047C18.818 13.8047 13.8066 18.816 13.8066 24.9979C13.8066 31.1797 18.818 36.1911 24.9998 36.1911C31.1816 36.1911 36.193 31.1797 36.193 24.9979C36.193 24.4644 35.7606 24.032 35.2271 24.032C34.6936 24.032 34.2612 24.4644 34.2612 24.9979C34.2612 30.1128 30.1147 34.2592 24.9998 34.2592C19.8849 34.2592 15.7385 30.1128 15.7385 24.9979ZM33.6388 19.9976C34.0152 19.6195 34.0139 19.008 33.6359 18.6316C33.2579 18.2552 32.6463 18.2565 32.2699 18.6345L25.0562 25.8796L22.2963 22.9275C21.932 22.5378 21.3208 22.5172 20.9311 22.8815C20.5414 23.2458 20.5208 23.857 20.8851 24.2467L24.3287 27.9302C24.5077 28.1217 24.7569 28.2323 25.0191 28.2364C25.2812 28.2405 25.5338 28.1379 25.7187 27.9521L33.6388 19.9976Z" fill="#006597"/>
</svg>
