<svg width="128" height="108" viewBox="0 0 128 108" fill="none" xmlns="http://www.w3.org/2000/svg">
<path d="M21.1467 106.459C19.9068 107.699 17.8899 107.704 16.7135 106.404C9.02549 97.9058 3.76636 87.4689 1.52305 76.191C-0.927118 63.8732 0.330398 51.1054 5.13656 39.5023C9.94273 27.8992 18.0817 17.9819 28.5242 11.0044C38.9667 4.02695 51.2438 0.302736 63.8029 0.302733C76.362 0.302736 88.6391 4.02694 99.0816 11.0044C109.524 17.9819 117.663 27.8992 122.469 39.5023C127.275 51.1054 128.533 63.8732 126.083 76.191C123.839 87.4689 118.58 97.9058 110.892 106.404C109.716 107.704 107.699 107.699 106.459 106.459C105.219 105.219 105.227 103.214 106.396 101.908C113.199 94.3027 117.857 84.9981 119.855 74.9521C122.06 63.8661 120.928 52.3752 116.603 41.9324C112.277 31.4896 104.952 22.564 95.5537 16.2842C86.1555 10.0045 75.1061 6.65274 63.8029 6.65274C52.4997 6.65273 41.4503 10.0045 32.0521 16.2842C22.6538 22.564 15.3287 31.4896 11.0032 41.9324C6.67765 52.3752 5.54589 63.8661 7.75103 74.9521C9.7493 84.9981 14.4064 94.3027 21.2101 101.908C22.3793 103.214 22.3866 105.219 21.1467 106.459Z" fill="#DDEFF8"/>
</svg>
