<svg width="88" height="88" viewBox="0 0 88 88" fill="none" xmlns="http://www.w3.org/2000/svg">
<g id="05 Data/form">
<path id="Shape" fill-rule="evenodd" clip-rule="evenodd" d="M11 60.5V71.5H22V60.5H11ZM5.5 49.5H27.5C30.525 49.5 33 51.975 33 55V77C33 80.025 30.525 82.5 27.5 82.5H5.5C2.475 82.5 0 80.025 0 77V55C0 51.975 2.475 49.5 5.5 49.5ZM55 16.5H82.5C85.525 16.5 88 18.975 88 22C88 25.025 85.525 27.5 82.5 27.5H55C51.975 27.5 49.5 25.025 49.5 22C49.5 18.975 51.975 16.5 55 16.5ZM33 5.5C36.025 5.5 38.5 7.975 38.5 11C38.5 12.54 37.895 13.915 36.905 14.905L20.405 36.905C19.415 37.895 18.04 38.5 16.5 38.5C14.96 38.5 13.585 37.895 12.595 36.905L1.595 25.905C0.605 24.915 0 23.54 0 22C0 18.975 2.475 16.5 5.5 16.5C7.04 16.5 8.415 17.105 9.405 18.095L16.5 25.245L29.095 7.095C30.085 6.105 31.46 5.5 33 5.5ZM55 60.5H82.5C85.525 60.5 88 62.975 88 66C88 69.025 85.525 71.5 82.5 71.5H55C51.975 71.5 49.5 69.025 49.5 66C49.5 62.975 51.975 60.5 55 60.5Z" fill="#8E8E8E"/>
</g>
</svg>
