<svg width="64" height="64" viewBox="0 0 64 64" fill="none" xmlns="http://www.w3.org/2000/svg">
<g filter="url(#filter0_d_4391_15468)">
<rect x="9.99902" y="8" width="44" height="44" rx="12" fill="#FFF4DA" shape-rendering="crispEdges"/>
<path d="M39.7863 25.849L34.6954 20.7581C34.6278 20.6906 34.5476 20.6371 34.4593 20.6006C34.371 20.5641 34.2764 20.5453 34.1808 20.5454H25.4536C25.0678 20.5454 24.6978 20.6987 24.425 20.9714C24.1523 21.2442 23.999 21.6142 23.999 22V38C23.999 38.3857 24.1523 38.7557 24.425 39.0285C24.6978 39.3013 25.0678 39.4545 25.4536 39.4545H38.5445C38.9302 39.4545 39.3002 39.3013 39.573 39.0285C39.8458 38.7557 39.999 38.3857 39.999 38V26.3636C39.9991 26.2681 39.9804 26.1734 39.9439 26.0852C39.9074 25.9969 39.8538 25.9166 39.7863 25.849ZM34.6954 33.849C34.763 33.9166 34.8166 33.9968 34.8531 34.0851C34.8897 34.1734 34.9085 34.268 34.9085 34.3636C34.9085 34.4592 34.8897 34.5538 34.8531 34.6421C34.8166 34.7303 34.763 34.8106 34.6954 34.8781C34.6278 34.9457 34.5476 34.9993 34.4593 35.0359C34.371 35.0724 34.2764 35.0913 34.1808 35.0913C34.0853 35.0913 33.9907 35.0724 33.9024 35.0359C33.8141 34.9993 33.7339 34.9457 33.6663 34.8781L31.999 33.21L30.3318 34.8781C30.2642 34.9457 30.184 34.9993 30.0957 35.0359C30.0074 35.0724 29.9128 35.0913 29.8172 35.0913C29.7216 35.0913 29.627 35.0724 29.5387 35.0359C29.4504 34.9993 29.3702 34.9457 29.3027 34.8781C29.2351 34.8106 29.1815 34.7303 29.1449 34.6421C29.1083 34.5538 29.0895 34.4592 29.0895 34.3636C29.0895 34.268 29.1083 34.1734 29.1449 34.0851C29.1815 33.9968 29.2351 33.9166 29.3027 33.849L30.9708 32.1818L29.3027 30.5145C29.1662 30.378 29.0895 30.1929 29.0895 30C29.0895 29.807 29.1662 29.6219 29.3027 29.4854C29.4391 29.3489 29.6242 29.2723 29.8172 29.2723C30.0102 29.2723 30.1953 29.3489 30.3318 29.4854L31.999 31.1536L33.6663 29.4854C33.7339 29.4178 33.8141 29.3642 33.9024 29.3277C33.9907 29.2911 34.0853 29.2723 34.1808 29.2723C34.2764 29.2723 34.371 29.2911 34.4593 29.3277C34.5476 29.3642 34.6278 29.4178 34.6954 29.4854C34.763 29.553 34.8166 29.6332 34.8531 29.7215C34.8897 29.8098 34.9085 29.9044 34.9085 30C34.9085 30.0955 34.8897 30.1901 34.8531 30.2784C34.8166 30.3667 34.763 30.4469 34.6954 30.5145L33.0272 32.1818L34.6954 33.849ZM34.1808 26.3636V22.3636L38.1808 26.3636H34.1808Z" fill="#FFD266"/>
</g>
<defs>
<filter id="filter0_d_4391_15468" x="-0.000976562" y="0" width="64" height="64" filterUnits="userSpaceOnUse" color-interpolation-filters="sRGB">
<feFlood flood-opacity="0" result="BackgroundImageFix"/>
<feColorMatrix in="SourceAlpha" type="matrix" values="0 0 0 0 0 0 0 0 0 0 0 0 0 0 0 0 0 0 127 0" result="hardAlpha"/>
<feOffset dy="2"/>
<feGaussianBlur stdDeviation="5"/>
<feComposite in2="hardAlpha" operator="out"/>
<feColorMatrix type="matrix" values="0 0 0 0 0.584314 0 0 0 0 0.792157 0 0 0 0 0.890196 0 0 0 0.12 0"/>
<feBlend mode="normal" in2="BackgroundImageFix" result="effect1_dropShadow_4391_15468"/>
<feBlend mode="normal" in="SourceGraphic" in2="effect1_dropShadow_4391_15468" result="shape"/>
</filter>
</defs>
</svg>
