<svg width="64" height="64" viewBox="0 0 64 64" fill="none" xmlns="http://www.w3.org/2000/svg">
<g filter="url(#filter0_d_2018_26832)">
<rect x="10" y="8" width="44" height="44" rx="12" fill="#DDEFF8" shape-rendering="crispEdges"/>
<path fill-rule="evenodd" clip-rule="evenodd" d="M23.85 30.0004C23.85 25.4993 27.4989 21.8504 32 21.8504C32.8909 21.8504 33.7468 21.993 34.5471 22.2561C34.9931 22.4026 35.4734 22.1599 35.62 21.714C35.7666 21.268 35.5239 20.7876 35.0779 20.6411C34.1085 20.3224 33.0735 20.1504 32 20.1504C26.56 20.1504 22.15 24.5604 22.15 30.0004C22.15 35.4404 26.56 39.8504 32 39.8504C37.44 39.8504 41.85 35.4404 41.85 30.0004C41.85 29.5309 41.4694 29.1504 41 29.1504C40.5306 29.1504 40.15 29.5309 40.15 30.0004C40.15 34.5015 36.5011 38.1504 32 38.1504C27.4989 38.1504 23.85 34.5015 23.85 30.0004ZM39.6023 25.6001C39.9336 25.2675 39.9324 24.7293 39.5997 24.398C39.2671 24.0668 38.7289 24.068 38.3977 24.4007L32.0496 30.7763L29.6209 28.1784C29.3003 27.8355 28.7625 27.8174 28.4195 28.138C28.0766 28.4586 28.0585 28.9965 28.3791 29.3394L31.4094 32.5809C31.5669 32.7494 31.7862 32.8467 32.0169 32.8503C32.2476 32.8539 32.4699 32.7636 32.6326 32.6001L39.6023 25.6001Z" fill="#006597"/>
</g>
<defs>
<filter id="filter0_d_2018_26832" x="0" y="0" width="64" height="64" filterUnits="userSpaceOnUse" color-interpolation-filters="sRGB">
<feFlood flood-opacity="0" result="BackgroundImageFix"/>
<feColorMatrix in="SourceAlpha" type="matrix" values="0 0 0 0 0 0 0 0 0 0 0 0 0 0 0 0 0 0 127 0" result="hardAlpha"/>
<feOffset dy="2"/>
<feGaussianBlur stdDeviation="5"/>
<feComposite in2="hardAlpha" operator="out"/>
<feColorMatrix type="matrix" values="0 0 0 0 0.584314 0 0 0 0 0.792157 0 0 0 0 0.890196 0 0 0 0.12 0"/>
<feBlend mode="normal" in2="BackgroundImageFix" result="effect1_dropShadow_2018_26832"/>
<feBlend mode="normal" in="SourceGraphic" in2="effect1_dropShadow_2018_26832" result="shape"/>
</filter>
</defs>
</svg>
