<svg width="28" height="29" viewBox="0 0 28 29" fill="none" xmlns="http://www.w3.org/2000/svg">
<g id="Icon/me">
<g id="Icon">
<path id="Circle 2" fill-rule="evenodd" clip-rule="evenodd" d="M-0.00195312 14.498V17.7647C-0.00195312 23.6926 4.80352 28.498 10.7314 28.498H13.998H17.2647C23.1926 28.498 27.998 23.6926 27.998 17.7647V14.498V11.2314C27.998 5.30352 23.1926 0.498047 17.2647 0.498047H13.998H10.7314C4.80352 0.498047 -0.00195312 5.30352 -0.00195312 11.2314V14.498Z" fill="#DDEFF8"/>
<g id="Group">
<path id="Combined Shape" d="M13.7662 13.6438C12.3917 13.6438 11.2773 12.5295 11.2773 11.1549C11.2773 9.78033 12.3917 8.66602 13.7662 8.66602C15.1408 8.66602 16.2551 9.78033 16.2551 11.1549C16.2551 12.5295 15.1408 13.6438 13.7662 13.6438Z" fill="#4298C0"/>
<path id="Combined Shape_2" d="M8.16642 19.3682C8.4076 16.3985 10.8179 14.8887 13.7557 14.8887C16.7348 14.8887 19.1824 16.3155 19.3647 19.3687C19.372 19.4903 19.3647 19.8664 18.8973 19.8664C16.5916 19.8664 13.1654 19.8664 8.61868 19.8664C8.46264 19.8664 8.15328 19.5299 8.16642 19.3682Z" fill="#006597"/>
</g>
</g>
</g>
</svg>
