<svg width="113" height="113" viewBox="0 0 113 113" fill="none" xmlns="http://www.w3.org/2000/svg">
<path d="M49.7294 74.9002L79.8439 44.7857L76.5104 41.4522L49.7294 68.2332L36.3107 54.8144L32.9772 58.1479L49.7294 74.9002ZM56.5141 98.875C50.657 98.875 45.1482 97.7638 39.9879 95.5415C34.8307 93.316 30.3436 90.2964 26.5267 86.4827C22.7099 82.6689 19.6887 78.1866 17.4632 73.0357C15.2377 67.8848 14.125 62.3776 14.125 56.5141C14.125 50.6507 15.2377 45.1419 17.4632 39.9879C19.6855 34.8307 22.7004 30.3436 26.5079 26.5267C30.3154 22.7099 34.7993 19.6887 39.9596 17.4632C45.12 15.2377 50.6287 14.125 56.4859 14.125C62.343 14.125 67.8518 15.2377 73.0121 17.4632C78.1693 19.6855 82.6564 22.702 86.4733 26.5126C90.2901 30.3232 93.3113 34.8071 95.5368 39.9643C97.7623 45.1215 98.875 50.6287 98.875 56.4859C98.875 62.343 97.7638 67.8518 95.5415 73.0121C93.3192 78.1725 90.2996 82.6595 86.4827 86.4733C82.6658 90.287 78.1834 93.3082 73.0357 95.5368C67.8879 97.7654 62.3807 98.8781 56.5141 98.875Z" fill="#029EEB"/>
</svg>
