<svg width="28" height="29" viewBox="0 0 28 29" fill="none" xmlns="http://www.w3.org/2000/svg">
<g id="Icon/all">
<g id="Icon">
<path id="Circle 2" fill-rule="evenodd" clip-rule="evenodd" d="M-0.00195312 14.498V17.7647C-0.00195312 23.6926 4.80352 28.498 10.7314 28.498H13.998H17.2647C23.1926 28.498 27.998 23.6926 27.998 17.7647V14.498V11.2314C27.998 5.30352 23.1926 0.498047 17.2647 0.498047H13.998H10.7314C4.80352 0.498047 -0.00195312 5.30352 -0.00195312 11.2314V14.498Z" fill="#DEEEED"/>
<g id="Group">
<path id="Combined Shape" fill-rule="evenodd" clip-rule="evenodd" d="M9.64453 11.3893C9.64453 12.7639 10.7588 13.8782 12.1334 13.8782C13.508 13.8782 14.6223 12.7639 14.6223 11.3893C14.6223 10.0147 13.508 8.90039 12.1334 8.90039C10.7588 8.90039 9.64453 10.0147 9.64453 11.3893ZM15.8672 13.8784C15.8672 14.9093 16.7029 15.7451 17.7339 15.7451C18.7648 15.7451 19.6005 14.9093 19.6005 13.8784C19.6005 12.8475 18.7648 12.0117 17.7339 12.0117C16.7029 12.0117 15.8672 12.8475 15.8672 13.8784Z" fill="#91CFCA"/>
<path id="Combined Shape_2" fill-rule="evenodd" clip-rule="evenodd" d="M12.1228 15.123C9.18506 15.123 6.77479 16.6329 6.53361 19.6026C6.52047 19.7643 6.82982 20.1008 6.98587 20.1008H17.2645C17.7319 20.1008 17.7392 19.7247 17.7319 19.603C17.5496 16.5499 15.102 15.123 12.1228 15.123ZM21.1293 20.1025H18.7276V20.1011C18.7276 18.7011 18.2653 17.4091 17.4849 16.3695C19.6052 16.3922 21.3366 17.4639 21.4669 19.7291C21.4721 19.8204 21.4669 20.1025 21.1293 20.1025Z" fill="#64ACA7"/>
</g>
</g>
</g>
</svg>
