<svg width="31" height="30" viewBox="0 0 31 30" fill="none" xmlns="http://www.w3.org/2000/svg">
<g id="file-search-02">
<path id="Icon" d="M14.8125 26.9999H7.31249C5.65563 26.9999 4.31249 25.6568 4.3125 23.9999L4.31262 5.99998C4.31263 4.34314 5.65577 3 7.31262 3H20.8129C22.4698 3 23.813 4.34315 23.813 6V12M25.3125 24.75L26.8125 26.25M9.56297 9H18.563M9.56297 13.5H18.563M9.56297 18H14.063M26.0625 21.75C26.0625 23.8211 24.3836 25.5 22.3125 25.5C20.2414 25.5 18.5625 23.8211 18.5625 21.75C18.5625 19.6789 20.2414 18 22.3125 18C24.3836 18 26.0625 19.6789 26.0625 21.75Z" stroke="#006597" stroke-width="1.5" stroke-linecap="round" stroke-linejoin="round"/>
</g>
</svg>
