<svg width="18" height="20" viewBox="0 0 18 20" fill="none" xmlns="http://www.w3.org/2000/svg">
<path d="M1 4.17647H17M7 14.7647V8.41177M11 14.7647V8.41177M13 19H5C3.89543 19 3 18.0519 3 16.8824V5.23529C3 4.65052 3.44772 4.17647 4 4.17647H14C14.5523 4.17647 15 4.65052 15 5.23529V16.8824C15 18.0519 14.1046 19 13 19ZM7 4.17647H11C11.5523 4.17647 12 3.70242 12 3.11765V2.05882C12 1.47405 11.5523 1 11 1H7C6.44772 1 6 1.47405 6 2.05882V3.11765C6 3.70242 6.44772 4.17647 7 4.17647Z" stroke="#555555" stroke-width="1.5" stroke-linecap="round" stroke-linejoin="round"/>
</svg>
