<svg width="171" height="20" viewBox="0 0 171 20" fill="none" xmlns="http://www.w3.org/2000/svg">
<path d="M10.184 6.918C10.184 9.198 8.588 11.155 5.624 11.155C2.698 11.155 1.064 9.198 1.064 6.918C1.064 5.968 1.387 5.056 1.976 4.334H0.703V2.624H4.218V0.724H6.973V2.624H10.488V4.334H9.272C9.88 5.056 10.184 5.968 10.184 6.918ZM16.72 7.621H14.82V19.325H3.971C3.116 19.325 2.641 18.85 2.641 17.995V12.96H5.301V17.52H12.217V1.655H14.82V5.721H16.72V7.621ZM3.534 6.918C3.534 8.628 4.484 9.54 5.624 9.54C6.764 9.54 7.714 8.628 7.714 6.918C7.714 5.208 6.764 4.239 5.624 4.239C4.484 4.239 3.534 5.208 3.534 6.918ZM27.0064 10.357V12.865H31.7944V19.515H29.1344V14.575H19.3494V12.865H24.3464V10.357H17.8674V8.647H29.0584V3.555H19.3874V1.845L31.7184 1.864V8.647H33.4474V10.357H27.0064ZM46.4698 9.635V1.655H49.0348V6.253H50.9348V8.153H49.0348V15.772C49.0538 15.886 49.0538 15.981 49.0538 16.095C49.0538 18.47 46.2038 19.8 42.7838 19.8C39.3638 19.8 36.5138 18.47 36.5138 16.095C36.5138 13.72 39.3638 12.39 42.7838 12.39C44.1328 12.39 45.4248 12.618 46.4698 13.036V11.345H34.9748V9.635H37.6348V5.74H40.0098V9.635H46.4698ZM42.0048 8.685V3.84H35.7348V2.13H44.4748V8.685H42.0048ZM42.7838 18.09C45.0638 18.09 46.4888 17.235 46.4888 16.095C46.4888 14.955 45.0638 14.1 42.7838 14.1C40.5038 14.1 39.0788 14.955 39.0788 16.095C39.0788 17.235 40.5038 18.09 42.7838 18.09ZM63.1973 4.315H53.8873V2.605H65.8573V12.903H63.1973V4.315ZM67.6623 15.867V17.672H52.0823V15.867H57.4593V8.438H60.1193V15.867H67.6623ZM85.1497 10.11H83.2497V19.325H80.5897V1.655H83.2497V8.21H85.1497V10.11ZM75.4027 7.241C75.4027 7.697 75.4787 8.02 75.7067 8.419L79.2977 14.689L77.3597 15.924L74.0917 10.034L70.9187 16.228L68.9047 15.107L72.4387 8.438C72.6477 8.039 72.7427 7.716 72.7427 7.26V3.745H69.4177V2.035H78.7277V3.745H75.4027V7.241ZM94.0301 8.153C90.5151 8.153 87.8551 6.823 87.8551 4.733C87.8551 2.624 90.5151 1.313 94.0301 1.313C97.5451 1.313 100.205 2.605 100.205 4.733C100.205 6.823 97.5451 8.153 94.0301 8.153ZM94.0301 3.023C91.7501 3.023 90.5151 3.764 90.5151 4.733C90.5151 5.683 91.7501 6.424 94.0301 6.424C96.3291 6.424 97.5451 5.683 97.5451 4.733C97.5451 3.764 96.3101 3.023 94.0301 3.023ZM98.0771 10.775V11.915H100.243V16.38H90.4961V17.615H100.623V19.325H89.3181C88.4631 19.325 87.9881 18.85 87.9881 17.995V14.765H97.7351V13.53H87.9881V11.915H90.0971V10.775H86.2971V9.065H101.877V10.775H98.0771ZM95.5311 10.775H92.7571V11.915H95.5311V10.775ZM117.845 1.674V19.325H107.205C106.35 19.325 105.875 18.85 105.875 17.995V12.39H115.166V1.674H117.845ZM108.25 7.488L104.564 11.44L102.93 9.882L106.597 5.949C106.844 5.683 106.958 5.398 106.958 5.018V1.75H109.618V4.999C109.618 5.379 109.713 5.645 109.979 5.93L113.38 9.54L111.727 11.231L108.25 7.488ZM115.185 14.1H108.535V17.52H115.185V14.1ZM135.142 1.655V19.325H132.482V17.235H120.512V15.43H132.482V1.655H135.142ZM126.098 12.656C123.248 12.656 121.519 10.585 121.519 7.26C121.519 3.935 123.248 1.845 126.098 1.845C128.948 1.845 130.658 3.935 130.658 7.26C130.658 10.585 128.948 12.656 126.098 12.656ZM126.098 3.365C124.673 3.365 123.989 4.98 123.989 7.26C123.989 9.54 124.673 11.136 126.098 11.136C127.523 11.136 128.188 9.54 128.188 7.26C128.188 4.98 127.523 3.365 126.098 3.365ZM152.439 1.655V19.325H149.779V1.655H152.439ZM138.189 2.035H146.378V16.209H143.718V3.745H138.189V2.035ZM170.307 12.656H163.847V19.325H161.187V12.656H154.727V10.851H165.918V3.555H156.437V1.845H168.578V10.851H170.307V12.656Z" fill="#1D1D1D"/>
</svg>
