<svg width="64" height="64" viewBox="0 0 64 64" fill="none" xmlns="http://www.w3.org/2000/svg">
<g filter="url(#filter0_d_2018_26805)">
<rect x="10" y="8" width="44" height="44" rx="12" fill="#F7E5EA" shape-rendering="crispEdges"/>
<path d="M40.8516 30.5294C40.8516 30.1152 40.5158 29.7794 40.1016 29.7794C39.6874 29.7794 39.3516 30.1152 39.3516 30.5294H40.8516ZM31.5508 22.8088C31.965 22.8088 32.3008 22.473 32.3008 22.0588C32.3008 21.6446 31.965 21.3088 31.5508 21.3088V22.8088ZM36.5762 30.5294C36.5762 30.1152 36.2404 29.7794 35.8262 29.7794C35.412 29.7794 35.0762 30.1152 35.0762 30.5294H36.5762ZM31.5508 27.0441C31.965 27.0441 32.3008 26.7083 32.3008 26.2941C32.3008 25.8799 31.965 25.5441 31.5508 25.5441V27.0441ZM35.8576 27.148C36.1519 26.8565 36.1541 26.3816 35.8626 26.0874C35.5711 25.7931 35.0962 25.7908 34.8019 26.0824L35.8576 27.148ZM31.023 29.8259C30.7287 30.1174 30.7265 30.5922 31.018 30.8865C31.3095 31.1808 31.7844 31.183 32.0786 30.8915L31.023 29.8259ZM41 23.9948L41.5278 24.5276C41.7302 24.3271 41.8015 24.0293 41.7119 23.7588C41.6223 23.4884 41.3872 23.2921 41.1051 23.2522L41 23.9948ZM37.5989 27.364L37.3638 28.0761C37.6316 28.1646 37.9264 28.0953 38.1268 27.8968L37.5989 27.364ZM34.5758 24.3692L34.0479 23.8363C33.8447 24.0377 33.7737 24.3372 33.8649 24.6083L34.5758 24.3692ZM37.9768 21L38.7192 20.8929C38.6787 20.6126 38.4838 20.3789 38.2152 20.2889C37.9466 20.1989 37.6502 20.2678 37.449 20.4672L37.9768 21ZM35.3316 26.6153L34.6207 26.8544C34.696 27.0782 34.8722 27.2534 35.0964 27.3274L35.3316 26.6153ZM38.3547 23.6205L37.6124 23.7275C37.66 24.0574 37.9196 24.3163 38.2496 24.3631L38.3547 23.6205ZM39.3516 30.5294C39.3516 34.7867 35.8657 38.25 31.5508 38.25V39.75C36.6808 39.75 40.8516 35.6285 40.8516 30.5294H39.3516ZM31.5508 38.25C27.2359 38.25 23.75 34.7867 23.75 30.5294H22.25C22.25 35.6285 26.4208 39.75 31.5508 39.75V38.25ZM23.75 30.5294C23.75 26.2721 27.2359 22.8088 31.5508 22.8088V21.3088C26.4208 21.3088 22.25 25.4304 22.25 30.5294H23.75ZM35.0762 30.5294C35.0762 32.4476 33.5045 34.0147 31.5508 34.0147V35.5147C34.3196 35.5147 36.5762 33.2894 36.5762 30.5294H35.0762ZM31.5508 34.0147C29.5971 34.0147 28.0254 32.4476 28.0254 30.5294H26.5254C26.5254 33.2894 28.782 35.5147 31.5508 35.5147V34.0147ZM28.0254 30.5294C28.0254 28.6112 29.5971 27.0441 31.5508 27.0441V25.5441C28.782 25.5441 26.5254 27.7695 26.5254 30.5294H28.0254ZM34.8019 26.0824L31.023 29.8259L32.0786 30.8915L35.8576 27.148L34.8019 26.0824ZM40.4722 23.462L37.0711 26.8311L38.1268 27.8968L41.5278 24.5276L40.4722 23.462ZM35.1036 24.902L38.5047 21.5328L37.449 20.4672L34.0479 23.8363L35.1036 24.902ZM37.8341 26.6518L35.5667 25.9031L35.0964 27.3274L37.3638 28.0761L37.8341 26.6518ZM36.0424 26.3761L35.2866 24.13L33.8649 24.6083L34.6207 26.8544L36.0424 26.3761ZM37.2345 21.1071L37.6124 23.7275L39.0971 23.5134L38.7192 20.8929L37.2345 21.1071ZM38.2496 24.3631L40.8949 24.7374L41.1051 23.2522L38.4598 22.8779L38.2496 24.3631Z" fill="#B05F75"/>
</g>
<defs>
<filter id="filter0_d_2018_26805" x="0" y="0" width="64" height="64" filterUnits="userSpaceOnUse" color-interpolation-filters="sRGB">
<feFlood flood-opacity="0" result="BackgroundImageFix"/>
<feColorMatrix in="SourceAlpha" type="matrix" values="0 0 0 0 0 0 0 0 0 0 0 0 0 0 0 0 0 0 127 0" result="hardAlpha"/>
<feOffset dy="2"/>
<feGaussianBlur stdDeviation="5"/>
<feComposite in2="hardAlpha" operator="out"/>
<feColorMatrix type="matrix" values="0 0 0 0 0.968627 0 0 0 0 0.898039 0 0 0 0 0.917647 0 0 0 0.12 0"/>
<feBlend mode="normal" in2="BackgroundImageFix" result="effect1_dropShadow_2018_26805"/>
<feBlend mode="normal" in="SourceGraphic" in2="effect1_dropShadow_2018_26805" result="shape"/>
</filter>
</defs>
</svg>
