<svg width="65" height="64" viewBox="0 0 65 64" fill="none" xmlns="http://www.w3.org/2000/svg">
<g filter="url(#filter0_d_4391_15438)">
<rect x="10.3325" y="8" width="44" height="44" rx="12" fill="#DDEFF8" shape-rendering="crispEdges"/>
<path d="M29.1559 27.8823H30.2148C30.4956 27.8823 30.7649 27.7708 30.9635 27.5722C31.162 27.3736 31.2736 27.1043 31.2736 26.8235C31.2736 26.5427 31.162 26.2734 30.9635 26.0748C30.7649 25.8762 30.4956 25.7647 30.2148 25.7647H29.1559C28.8751 25.7647 28.6058 25.8762 28.4072 26.0748C28.2087 26.2734 28.0971 26.5427 28.0971 26.8235C28.0971 27.1043 28.2087 27.3736 28.4072 27.5722C28.6058 27.7708 28.8751 27.8823 29.1559 27.8823ZM29.1559 30C28.8751 30 28.6058 30.1115 28.4072 30.3101C28.2087 30.5087 28.0971 30.778 28.0971 31.0588C28.0971 31.3396 28.2087 31.6089 28.4072 31.8075C28.6058 32.0061 28.8751 32.1176 29.1559 32.1176H35.5089C35.7897 32.1176 36.059 32.0061 36.2576 31.8075C36.4561 31.6089 36.5677 31.3396 36.5677 31.0588C36.5677 30.778 36.4561 30.5087 36.2576 30.3101C36.059 30.1115 35.7897 30 35.5089 30H29.1559ZM40.803 26.76C40.792 26.6627 40.7707 26.5669 40.7395 26.4741V26.3788C40.6886 26.2699 40.6206 26.1699 40.5383 26.0823L34.1853 19.7294C34.0978 19.647 33.9977 19.5791 33.8889 19.5282C33.8573 19.5237 33.8252 19.5237 33.7936 19.5282C33.686 19.4665 33.5672 19.4269 33.4442 19.4117H27.0383C26.1958 19.4117 25.3879 19.7464 24.7922 20.3421C24.1965 20.9378 23.8618 21.7458 23.8618 22.5882V37.4117C23.8618 38.2542 24.1965 39.0621 24.7922 39.6578C25.3879 40.2535 26.1958 40.5882 27.0383 40.5882H37.6265C38.469 40.5882 39.2769 40.2535 39.8726 39.6578C40.4683 39.0621 40.803 38.2542 40.803 37.4117V26.8235C40.803 26.8235 40.803 26.8235 40.803 26.76ZM34.4501 23.0223L37.1924 25.7647H35.5089C35.2281 25.7647 34.9587 25.6531 34.7602 25.4546C34.5616 25.256 34.4501 24.9867 34.4501 24.7059V23.0223ZM38.6853 37.4117C38.6853 37.6926 38.5738 37.9619 38.3752 38.1604C38.1767 38.359 37.9073 38.4706 37.6265 38.4706H27.0383C26.7575 38.4706 26.4882 38.359 26.2896 38.1604C26.091 37.9619 25.9795 37.6926 25.9795 37.4117V22.5882C25.9795 22.3074 26.091 22.0381 26.2896 21.8395C26.4882 21.6409 26.7575 21.5294 27.0383 21.5294H32.3324V24.7059C32.3324 25.5483 32.6671 26.3563 33.2628 26.952C33.8585 27.5477 34.6664 27.8823 35.5089 27.8823H38.6853V37.4117ZM35.5089 34.2353H29.1559C28.8751 34.2353 28.6058 34.3468 28.4072 34.5454C28.2087 34.744 28.0971 35.0133 28.0971 35.2941C28.0971 35.5749 28.2087 35.8442 28.4072 36.0428C28.6058 36.2414 28.8751 36.3529 29.1559 36.3529H35.5089C35.7897 36.3529 36.059 36.2414 36.2576 36.0428C36.4561 35.8442 36.5677 35.5749 36.5677 35.2941C36.5677 35.0133 36.4561 34.744 36.2576 34.5454C36.059 34.3468 35.7897 34.2353 35.5089 34.2353Z" fill="#006597"/>
</g>
<defs>
<filter id="filter0_d_4391_15438" x="0.33252" y="0" width="64" height="64" filterUnits="userSpaceOnUse" color-interpolation-filters="sRGB">
<feFlood flood-opacity="0" result="BackgroundImageFix"/>
<feColorMatrix in="SourceAlpha" type="matrix" values="0 0 0 0 0 0 0 0 0 0 0 0 0 0 0 0 0 0 127 0" result="hardAlpha"/>
<feOffset dy="2"/>
<feGaussianBlur stdDeviation="5"/>
<feComposite in2="hardAlpha" operator="out"/>
<feColorMatrix type="matrix" values="0 0 0 0 0.968627 0 0 0 0 0.898039 0 0 0 0 0.917647 0 0 0 0.12 0"/>
<feBlend mode="normal" in2="BackgroundImageFix" result="effect1_dropShadow_4391_15438"/>
<feBlend mode="normal" in="SourceGraphic" in2="effect1_dropShadow_4391_15438" result="shape"/>
</filter>
</defs>
</svg>
