<svg width="24" height="24" viewBox="0 0 24 24" fill="none" xmlns="http://www.w3.org/2000/svg">
<path d="M11.5202 6.24039V9.12039C11.5202 9.65059 11.95 10.0804 12.4802 10.0804H15.3602M17.2802 2.40039H10.56C9.49958 2.40039 8.63997 3.26 8.63996 4.32038V6.24039M17.2802 2.40039H17.8157C18.0861 2.40039 18.3434 2.51426 18.5297 2.71021C18.8096 3.00469 19.2529 3.4581 19.6802 3.84039C20.015 4.14 20.5411 4.67771 20.8562 5.0045C21.0265 5.18122 21.1202 5.41719 21.1202 5.66266L21.1202 6.24039M17.2802 2.40039V5.28039C17.2802 5.81058 17.71 6.24039 18.2402 6.24039H21.1202M21.1202 6.24039L21.1199 15.8404C21.1199 16.9008 20.2603 17.7604 19.1999 17.7604H15.3599M13.9202 7.68039C13.4929 7.2981 13.0496 6.84469 12.7697 6.55021C12.5834 6.35426 12.3261 6.24039 12.0557 6.24039H4.79996C3.73958 6.24039 2.87996 7.1 2.87996 8.16038L2.87988 19.6803C2.87988 20.7407 3.73949 21.6003 4.79988 21.6004L13.4399 21.6004C14.5003 21.6004 15.3599 20.7408 15.3599 19.6804L15.3602 9.50266C15.3602 9.25719 15.2665 9.02122 15.0962 8.8445C14.7811 8.51771 14.255 7.98001 13.9202 7.68039Z" stroke="#717171" stroke-width="1.5" stroke-linecap="round" stroke-linejoin="round"/>
</svg>
