<svg width="24" height="24" viewBox="0 0 24 24" fill="none" xmlns="http://www.w3.org/2000/svg">
<path d="M18 3C19.1046 3 20 3.88316 20 4.9726L20 8.33992C20 9.42936 19.1046 10.3125 18 10.3125H15C13.8954 10.3125 13 9.42936 13 8.33992L13 4.9726C13 3.88316 13.8954 3 15 3L18 3Z" stroke="#717171" stroke-width="1.5" stroke-linecap="round" stroke-linejoin="round"/>
<path d="M5 3C3.89543 3 3 3.88316 3 4.9726L3.00001 8.33992C3.00001 9.42936 3.89544 10.3125 5.00001 10.3125H8.00001C9.10458 10.3125 10 9.42936 10 8.33992L10 4.9726C10 3.88316 9.10457 3 8 3L5 3Z" stroke="#717171" stroke-width="1.5" stroke-linecap="round" stroke-linejoin="round"/>
<path d="M18 13.0274C19.1046 13.0274 20 13.9106 20 15V18.3673C20 19.4567 19.1046 20.3399 18 20.3399H15C13.8954 20.3399 13 19.4567 13 18.3673L13 15C13 13.9106 13.8954 13.0274 15 13.0274H18Z" stroke="#717171" stroke-width="1.5" stroke-linecap="round" stroke-linejoin="round"/>
<path d="M5.00001 13.0274C3.89544 13.0274 3.00001 13.9106 3.00001 15L3.00001 18.3673C3.00001 19.4567 3.89544 20.3399 5.00001 20.3399H8.00001C9.10458 20.3399 10 19.4567 10 18.3673L10 15C10 13.9106 9.10458 13.0274 8.00001 13.0274H5.00001Z" stroke="#717171" stroke-width="1.5" stroke-linecap="round" stroke-linejoin="round"/>
</svg>
