<svg width="64" height="64" viewBox="0 0 64 64" fill="none" xmlns="http://www.w3.org/2000/svg">
<g filter="url(#filter0_d_2042_20725)">
<rect x="10" y="8" width="44" height="44" rx="12" fill="#DEEEED" shape-rendering="crispEdges"/>
<path fill-rule="evenodd" clip-rule="evenodd" d="M26.85 26.0004C26.85 24.2607 28.2603 22.8504 30 22.8504C31.7397 22.8504 33.15 24.2607 33.15 26.0004C33.15 27.7401 31.7397 29.1504 30 29.1504C28.2603 29.1504 26.85 27.7401 26.85 26.0004ZM30 21.1504C27.3214 21.1504 25.15 23.3218 25.15 26.0004C25.15 28.679 27.3214 30.8504 30 30.8504C32.6786 30.8504 34.85 28.679 34.85 26.0004C34.85 23.3218 32.6786 21.1504 30 21.1504ZM24.85 35.9171C24.85 35.514 25.1786 34.9983 26.2184 34.5392C27.2079 34.1022 28.5842 33.8504 30 33.8504C31.3957 33.8504 32.7709 34.1435 33.7679 34.6051C34.2668 34.8361 34.6328 35.0916 34.863 35.3382C35.0846 35.5756 35.1476 35.766 35.1499 35.9089C35.1418 35.9304 35.1051 35.9985 34.9627 36.1092C34.7442 36.279 34.3797 36.462 33.8649 36.6274C32.8446 36.9553 31.4363 37.1504 30 37.1504C28.3015 37.1504 26.9034 36.9525 25.9613 36.632C25.4876 36.4708 25.1811 36.2959 25.0077 36.1429C24.8489 36.0028 24.8498 35.929 24.85 35.9178L24.85 35.9171ZM35.1519 35.9014C35.1521 35.9014 35.1519 35.9034 35.1505 35.9072C35.151 35.9033 35.1517 35.9014 35.1519 35.9014ZM30 32.1504C28.4158 32.1504 26.7921 32.4274 25.5316 32.984C24.3213 33.5185 23.15 34.4611 23.15 35.9171C23.15 36.546 23.4675 37.0511 23.8829 37.4176C24.2877 37.7748 24.8249 38.041 25.4137 38.2414C26.5966 38.6439 28.1985 38.8504 30 38.8504C31.5637 38.8504 33.1554 38.641 34.385 38.2459C34.9953 38.0498 35.5682 37.7917 36.006 37.4514C36.4404 37.1137 36.85 36.6038 36.85 35.9171C36.85 35.2275 36.5361 34.6393 36.1058 34.1782C35.6797 33.7217 35.1081 33.3522 34.4821 33.0624C33.2291 32.4823 31.6043 32.1504 30 32.1504ZM36.1539 29.9189C36.1989 29.4516 36.6142 29.1093 37.0815 29.1543C38.2957 29.2713 39.4222 29.5869 40.2734 30.0792C41.0977 30.5559 41.85 31.3204 41.85 32.3737C41.85 32.9196 41.641 33.4174 41.2349 33.813C40.8519 34.1859 40.3291 34.4353 39.7318 34.6047C39.2802 34.7327 38.8103 34.4704 38.6822 34.0187C38.5542 33.5671 38.8165 33.0972 39.2682 32.9691C39.7157 32.8422 39.9429 32.6982 40.0488 32.5951C40.1314 32.5147 40.15 32.454 40.15 32.3737C40.15 32.217 40.0328 31.9038 39.4224 31.5508C38.8388 31.2134 37.9653 30.9474 36.9185 30.8465C36.4512 30.8014 36.1089 30.3861 36.1539 29.9189ZM38 21.1504C37.5306 21.1504 37.15 21.5309 37.15 22.0004C37.15 22.4698 37.5306 22.8504 38 22.8504C38.9113 22.8504 39.65 23.5891 39.65 24.5004C39.65 25.4117 38.9113 26.1504 38 26.1504C37.5306 26.1504 37.15 26.5309 37.15 27.0004C37.15 27.4698 37.5306 27.8504 38 27.8504C39.8501 27.8504 41.35 26.3505 41.35 24.5004C41.35 22.6502 39.8501 21.1504 38 21.1504Z" fill="#64ACA7"/>
</g>
<defs>
<filter id="filter0_d_2042_20725" x="0" y="0" width="64" height="64" filterUnits="userSpaceOnUse" color-interpolation-filters="sRGB">
<feFlood flood-opacity="0" result="BackgroundImageFix"/>
<feColorMatrix in="SourceAlpha" type="matrix" values="0 0 0 0 0 0 0 0 0 0 0 0 0 0 0 0 0 0 127 0" result="hardAlpha"/>
<feOffset dy="2"/>
<feGaussianBlur stdDeviation="5"/>
<feComposite in2="hardAlpha" operator="out"/>
<feColorMatrix type="matrix" values="0 0 0 0 0.486275 0 0 0 0 0.552941 0 0 0 0 0.709804 0 0 0 0.12 0"/>
<feBlend mode="normal" in2="BackgroundImageFix" result="effect1_dropShadow_2042_20725"/>
<feBlend mode="normal" in="SourceGraphic" in2="effect1_dropShadow_2042_20725" result="shape"/>
</filter>
</defs>
</svg>
